REM DIRINDEX 1\2\6,1\2\7,1\2\8,1\3\9,1\3\10,1\3\11,1\4\12,1\4\13,1\4\14,1\5\15,1\5\16,1\5\17,1\5\18
REM DIRNAME folder01,folder02,folder03,folder04,folder05,folder06,folder07,folder08,folder09,folder10,folder11,folder12,folder13,folder14,folder15,folder16,folder17,folder18
TITLE ""
FILE "" MP3
  TRACK 01 AUDIO
    TITLE "16:cjc019_7329"
    INDEX 01 00:00:00
  TRACK 02 AUDIO
    TITLE "0:"
    INDEX 01 00:00:72
  TRACK 03 AUDIO
    TITLE "18:cjc019_7330"
    INDEX 01 00:01:52
  TRACK 04 AUDIO
    TITLE "0:"
    INDEX 01 00:02:63
  TRACK 05 AUDIO
    TITLE "17:cjc019_7331"
    INDEX 01 00:03:43
  TRACK 06 AUDIO
    TITLE "0:"
    INDEX 01 00:04:60
  TRACK 07 AUDIO
    TITLE "16:cjc019_7332"
    INDEX 01 00:06:41
  TRACK 08 AUDIO
    TITLE "0:"
    INDEX 01 00:07:39
  TRACK 09 AUDIO
    TITLE "18:cjc019_7333"
    INDEX 01 00:08:23
  TRACK 10 AUDIO
    TITLE "0:"
    INDEX 01 00:09:36
  TRACK 11 AUDIO
    TITLE "17:cjc019_7334"
    INDEX 01 00:10:14
  TRACK 12 AUDIO
    TITLE "0:"
    INDEX 01 00:11:15
  TRACK 13 AUDIO
    TITLE "16:cjc019_7335"
    INDEX 01 00:12:69
  TRACK 14 AUDIO
    TITLE "0:"
    INDEX 01 00:14:39
  TRACK 15 AUDIO
    TITLE "18:cjc019_7336"
    INDEX 01 00:15:19
  TRACK 16 AUDIO
    TITLE "0:"
    INDEX 01 00:17:21
  TRACK 17 AUDIO
    TITLE "17:cjc019_7337"
    INDEX 01 00:17:74
  TRACK 18 AUDIO
    TITLE "0:"
    INDEX 01 00:19:42
  TRACK 19 AUDIO
    TITLE "16:cjc019_7338"
    INDEX 01 00:21:25
  TRACK 20 AUDIO
    TITLE "0:"
    INDEX 01 00:22:72
  TRACK 21 AUDIO
    TITLE "18:cjc019_7339"
    INDEX 01 00:23:50
  TRACK 22 AUDIO
    TITLE "0:"
    INDEX 01 00:24:63
  TRACK 23 AUDIO
    TITLE "17:cjc019_7340"
    INDEX 01 00:25:39
  TRACK 24 AUDIO
    TITLE "0:"
    INDEX 01 00:27:08
  TRACK 25 AUDIO
    TITLE "16:cjc019_7341"
    INDEX 01 00:28:62
  TRACK 26 AUDIO
    TITLE "0:"
    INDEX 01 00:29:60
  TRACK 27 AUDIO
    TITLE "18:cjc019_7342"
    INDEX 01 00:30:44
  TRACK 28 AUDIO
    TITLE "0:"
    INDEX 01 00:34:06
  TRACK 29 AUDIO
    TITLE "17:cjc019_7343"
    INDEX 01 00:34:57
  TRACK 30 AUDIO
    TITLE "0:"
    INDEX 01 00:35:64
  TRACK 31 AUDIO
    TITLE "16:cjc019_7344"
    INDEX 01 00:37:44
  TRACK 32 AUDIO
    TITLE "0:"
    INDEX 01 00:38:57
  TRACK 33 AUDIO
    TITLE "18:cjc019_7345"
    INDEX 01 00:39:41
  TRACK 34 AUDIO
    TITLE "0:"
    INDEX 01 00:41:57
  TRACK 35 AUDIO
    TITLE "17:cjc019_7346"
    INDEX 01 00:42:39
  TRACK 36 AUDIO
    TITLE "0:"
    INDEX 01 00:43:54
  TRACK 37 AUDIO
    TITLE "16:cjc019_7347"
    INDEX 01 00:45:32
  TRACK 38 AUDIO
    TITLE "0:"
    INDEX 01 00:46:72
  TRACK 39 AUDIO
    TITLE "18:cjc019_7348"
    INDEX 01 00:47:54
  TRACK 40 AUDIO
    TITLE "0:"
    INDEX 01 00:49:18
  TRACK 41 AUDIO
    TITLE "17:cjc019_7349"
    INDEX 01 00:49:67
  TRACK 42 AUDIO
    TITLE "0:"
    INDEX 01 00:51:32
  TRACK 43 AUDIO
    TITLE "16:cjc019_7350"
    INDEX 01 00:53:13
  TRACK 44 AUDIO
    TITLE "0:"
    INDEX 01 00:54:15
  TRACK 45 AUDIO
    TITLE "18:cjc019_7351"
    INDEX 01 00:55:01
  TRACK 46 AUDIO
    TITLE "0:"
    INDEX 01 00:57:39
  TRACK 47 AUDIO
    TITLE "17:cjc019_7352"
    INDEX 01 00:58:15
  TRACK 48 AUDIO
    TITLE "0:"
    INDEX 01 00:59:24
  TRACK 49 AUDIO
    TITLE "16:cjc019_7353"
    INDEX 01 01:01:07
  TRACK 50 AUDIO
    TITLE "0:"
    INDEX 01 01:02:26
  TRACK 51 AUDIO
    TITLE "18:cjc019_7354"
    INDEX 01 01:03:06
  TRACK 52 AUDIO
    TITLE "0:"
    INDEX 01 01:04:11
  TRACK 53 AUDIO
    TITLE "17:cjc019_7355"
    INDEX 01 01:04:62
  TRACK 54 AUDIO
    TITLE "0:"
    INDEX 01 01:06:08
  TRACK 55 AUDIO
    TITLE "16:cjc019_7356"
    INDEX 01 01:07:70
  TRACK 56 AUDIO
    TITLE "0:"
    INDEX 01 01:09:03
  TRACK 57 AUDIO
    TITLE "18:cjc019_7357"
    INDEX 01 01:09:65
  TRACK 58 AUDIO
    TITLE "0:"
    INDEX 01 01:11:09
  TRACK 59 AUDIO
    TITLE "17:cjc019_7358"
    INDEX 01 01:11:62
  TRACK 60 AUDIO
    TITLE "0:"
    INDEX 01 01:12:73
  TRACK 61 AUDIO
    TITLE "16:cjc019_7359"
    INDEX 01 01:14:57
  TRACK 62 AUDIO
    TITLE "0:"
    INDEX 01 01:15:66
  TRACK 63 AUDIO
    TITLE "18:cjc019_7360"
    INDEX 01 01:16:46
  TRACK 64 AUDIO
    TITLE "0:"
    INDEX 01 01:17:45
  TRACK 65 AUDIO
    TITLE "17:cjc019_7361"
    INDEX 01 01:18:29
  TRACK 66 AUDIO
    TITLE "0:"
    INDEX 01 01:19:42
  TRACK 67 AUDIO
    TITLE "16:cjc019_7362"
    INDEX 01 01:21:23
  TRACK 68 AUDIO
    TITLE "0:"
    INDEX 01 01:22:33
  TRACK 69 AUDIO
    TITLE "18:cjc019_7363"
    INDEX 01 01:23:18
  TRACK 70 AUDIO
    TITLE "0:"
    INDEX 01 01:24:30
  TRACK 71 AUDIO
    TITLE "17:cjc019_7364"
    INDEX 01 01:25:08
  TRACK 72 AUDIO
    TITLE "0:"
    INDEX 01 01:26:17
  TRACK 73 AUDIO
    TITLE "16:cjc019_7365"
    INDEX 01 01:28:04
  TRACK 74 AUDIO
    TITLE "0:"
    INDEX 01 01:29:27
  TRACK 75 AUDIO
    TITLE "18:cjc019_7366"
    INDEX 01 01:30:09
  TRACK 76 AUDIO
    TITLE "0:"
    INDEX 01 01:31:63
  TRACK 77 AUDIO
    TITLE "17:cjc019_7367"
    INDEX 01 01:32:51
  TRACK 78 AUDIO
    TITLE "0:"
    INDEX 01 01:34:03
  TRACK 79 AUDIO
    TITLE "16:cjc019_7368"
    INDEX 01 01:35:63
  TRACK 80 AUDIO
    TITLE "0:"
    INDEX 01 01:36:66
  TRACK 81 AUDIO
    TITLE "18:cjc019_7369"
    INDEX 01 01:37:50
  TRACK 82 AUDIO
    TITLE "0:"
    INDEX 01 01:39:61
  TRACK 83 AUDIO
    TITLE "17:cjc019_7370"
    INDEX 01 01:40:40
  TRACK 84 AUDIO
    TITLE "0:"
    INDEX 01 01:41:57
  TRACK 85 AUDIO
    TITLE "16:cjc019_7371"
    INDEX 01 01:43:45
  TRACK 86 AUDIO
    TITLE "0:"
    INDEX 01 01:44:54
  TRACK 87 AUDIO
    TITLE "18:cjc019_7372"
    INDEX 01 01:45:42
  TRACK 88 AUDIO
    TITLE "0:"
    INDEX 01 01:47:60
  TRACK 89 AUDIO
    TITLE "17:cjc019_7373"
    INDEX 01 01:48:36
  TRACK 90 AUDIO
    TITLE "0:"
    INDEX 01 01:49:45
  TRACK 91 AUDIO
    TITLE "16:cjc019_7374"
    INDEX 01 01:51:28
  TRACK 92 AUDIO
    TITLE "0:"
    INDEX 01 01:52:36
  TRACK 93 AUDIO
    TITLE "18:cjc019_7375"
    INDEX 01 01:53:16
  TRACK 94 AUDIO
    TITLE "0:"
    INDEX 01 01:55:20
  TRACK 95 AUDIO
    TITLE "17:cjc019_7376"
    INDEX 01 01:56:00
  TRACK 96 AUDIO
    TITLE "0:"
    INDEX 01 01:57:11
  TRACK 97 AUDIO
    TITLE "16:cjc019_7377"
    INDEX 01 01:58:72
  TRACK 98 AUDIO
    TITLE "0:"
    INDEX 01 02:00:06
  TRACK 99 AUDIO
    TITLE "18:cjc019_7378"
    INDEX 01 02:00:63
  TRACK 100 AUDIO
    TITLE "0:"
    INDEX 01 02:01:66
  TRACK 101 AUDIO
    TITLE "17:cjc019_7379"
    INDEX 01 02:02:52
  TRACK 102 AUDIO
    TITLE "0:"
    INDEX 01 02:03:69
  TRACK 103 AUDIO
    TITLE "16:cjc019_7380"
    INDEX 01 02:05:52
  TRACK 104 AUDIO
    TITLE "0:"
    INDEX 01 02:06:65
  TRACK 105 AUDIO
    TITLE "18:cjc019_7381"
    INDEX 01 02:07:45
  TRACK 106 AUDIO
    TITLE "0:"
    INDEX 01 02:10:00
  TRACK 107 AUDIO
    TITLE "17:cjc019_7382"
    INDEX 01 02:10:57
  TRACK 108 AUDIO
    TITLE "0:"
    INDEX 01 02:11:72
